<svg width="512" height="512" viewBox="0 0 512 512" fill="none" xmlns="http://www.w3.org/2000/svg">
<rect width="512" height="512" rx="256" fill="#1E4462"/>
<g clip-path="url(#clip0_9_51)">
<path d="M218.542 75.8302V75.4702L219.162 74.6802L217.662 73.6702L218.002 72.8802L218.422 72.6702L219.952 72.7202L220.052 72.3702L219.942 71.4202L219.642 70.8302L219.922 70.4202L220.892 70.4702L221.972 71.1702L223.392 71.2402L224.392 71.9602L225.002 72.0502L229.762 71.7302L231.182 72.1802L232.932 70.9802L234.422 71.0102L235.032 72.1702L234.662 72.9702L235.252 72.3702L235.332 72.1102L235.112 70.8202L235.322 70.4302L236.772 69.9102L237.912 70.3302L238.632 70.2702L238.212 70.2202L237.442 69.6502L237.322 69.1402L237.402 65.9702L238.012 65.0102L236.372 63.7902L235.822 63.0102L235.372 62.7302L234.552 62.5802L233.002 62.8402L231.662 63.5602L231.452 63.5402L230.402 62.4902L230.192 61.7702L229.052 61.1602L228.032 61.2502L227.962 61.1302L229.152 59.7102L230.352 59.1602L231.502 60.2902L232.322 62.2302L232.742 62.2702L233.072 61.6702L232.602 60.2102L232.102 59.3102L232.482 59.2202L233.512 59.5702L234.212 59.2002L235.982 60.6802L236.092 61.1602L237.812 63.3602L238.402 63.4902L238.902 63.1002L240.012 61.4402L240.482 61.4802L241.332 62.3902L242.962 65.3402L243.362 65.6602L244.102 65.8802L244.712 65.4702H245.252L245.802 66.2702L247.342 66.9202L248.082 66.9402L248.612 66.7702L249.662 66.2002L250.062 65.6602L251.242 65.8602L251.362 66.2002L250.612 66.6302L250.442 66.8902L250.492 67.1602L250.832 67.4802L251.612 67.8102L252.212 67.5302L252.532 67.1102L252.782 67.0702L254.252 68.1902L254.122 68.4002L254.272 69.2902L254.482 69.4602L256.252 69.2002L256.812 69.4302L257.842 69.5202L258.742 69.4102L259.542 68.8002L260.612 68.7402L261.692 70.2402L263.062 70.9502L264.002 71.7302L265.182 71.8402L265.602 72.0302L265.542 71.8202L265.982 70.6802L266.652 70.0102L267.212 69.7702L267.842 70.0502L269.452 69.8602L270.282 69.1902L270.032 69.0502L269.412 69.4202L269.302 69.1502L269.532 68.3202L270.532 68.0502L271.272 68.0702L272.652 66.9702L272.612 66.2002L273.012 66.2102L273.382 66.6402L273.052 67.1702L271.202 68.7402L271.662 69.2802L270.412 70.5602L270.362 70.9102L270.572 71.4302L271.082 71.9102L271.632 71.6702L271.792 71.2202L272.682 70.4902L274.192 70.0502L273.272 71.2102L273.642 71.7702L274.442 71.4002L274.632 71.7302L273.762 72.9902L274.062 73.7302L274.382 74.0302L274.832 73.7402L275.652 73.6502L275.802 73.9102L276.552 73.8402L277.132 73.3902L277.892 71.4602L277.602 71.0802L276.572 71.2102L275.912 70.9302L275.862 70.6602L276.992 69.5402L278.832 68.3102L280.042 68.0902L279.792 68.9202L280.472 70.8302L281.242 71.9502L281.732 71.9402L282.152 71.6402L282.122 71.4002L281.412 71.1402L281.472 70.9302L282.352 70.7102L283.452 71.2702L284.562 72.7702L282.672 74.0902L282.032 74.8302L280.932 76.6002L280.682 77.9402L279.312 77.4302L279.202 78.1702L279.872 79.4102L279.862 80.4802L279.682 81.5302L278.922 82.6702L278.822 82.3202L277.942 82.6202L277.982 80.6502L277.812 80.4802L277.472 80.5602L277.042 81.7202L276.112 82.5302L275.672 82.5602L275.522 82.1302L274.992 81.9202L273.862 82.3602L273.142 82.9502L272.752 83.6202L272.782 83.9302L273.222 84.2702L272.932 84.9202L272.452 85.3202L272.252 86.5702L272.722 87.9602L273.142 88.1902L273.742 88.0402L274.212 87.5102L274.152 88.3402L273.812 89.5002L273.122 90.5602L272.822 92.5702L272.522 93.1502L271.262 94.0002L269.832 95.8502L268.952 97.3702L268.932 98.1802L267.572 99.1002L267.132 99.0902L267.802 101.03L268.262 101.72L268.982 102.33L270.372 102.83L272.342 104.09L273.352 105.01L276.262 106.52L276.572 106.79L276.832 108.16L277.432 108.86L280.132 110.15L281.242 111.07L282.252 112.17L285.122 112.29L286.272 112.89L288.792 114.68L290.082 115.23L290.682 115.21L291.802 115.58L292.792 116.07L294.112 118.17L295.652 119.48V229.03L222.192 229.04L207.722 229.03L198.012 229.1L197.952 127.5V106.51V100.61L198.922 100.93L199.962 101.83L199.842 103.87L200.022 104.09L200.732 103.21L200.322 100.5L200.442 100.25L201.562 100.56L202.962 101.27L205.202 103.77L205.292 104.31L205.892 104.08L205.152 103.11L204.752 102.28L204.612 101.45L204.852 100.98L204.972 100.23L206.642 100.52L207.332 100.29L208.202 99.4502L206.262 100.06L205.282 99.4302L204.502 98.4102L204.322 97.8902L204.722 97.6902L205.582 97.6002L206.292 97.1002L206.332 96.8602L205.112 97.2702L203.812 97.0302L202.892 96.5002L201.842 95.5002L201.972 94.6102L202.622 93.3702L203.292 92.4802L205.902 90.8402L206.492 88.0602L206.432 87.5502L206.942 85.5402L207.712 84.7402L207.812 85.4402L208.192 85.6602L209.242 85.4702L210.572 84.5702L211.662 83.4202L211.552 83.0102L210.872 82.0802L210.502 81.7702L210.132 81.6902L210.042 81.4502L210.142 79.4902L210.322 79.0002L210.772 78.8002L210.922 79.0802L211.242 79.2302L211.652 79.1402L212.352 78.6402L212.632 78.0302L212.532 76.5602L212.642 76.1902L214.322 75.4402L215.322 76.5802L216.282 76.5102L215.362 76.2402L215.052 75.0702L215.342 74.3602L215.422 73.4802L215.092 73.2302L215.622 73.0102L217.162 73.5002L218.542 75.8302ZM219.222 68.0902L218.162 67.2102L216.172 66.3902L214.172 64.8202L213.362 62.6902L212.782 60.5402L212.862 59.7302L213.092 59.5502L214.602 60.8702L215.052 61.6002L216.482 62.0502L218.002 61.6902L218.592 61.1402L219.732 61.6302L221.002 60.6502L221.332 60.6202L221.552 61.3702L222.112 62.1702L222.162 61.8902L221.792 60.9602L221.922 60.4102L222.642 59.8402L224.232 60.4802L225.432 62.0602L225.522 62.8902L222.752 65.8002L222.402 65.8502L221.062 66.7102L219.222 68.0902ZM283.812 92.9002L283.982 92.6202L284.452 92.5902L284.172 93.9902L283.602 94.2102L282.102 93.8102L280.812 94.0002L278.052 93.3102L278.432 91.4002L278.352 90.5802L278.602 89.6502L278.912 89.1202L280.382 88.8402L280.732 88.5702L280.422 87.8702L281.332 87.1102L281.802 87.1402L281.722 87.6502L281.302 87.9402L281.702 89.1002L282.732 89.2802L283.092 88.9002L282.982 88.5202L283.182 88.2502L283.542 88.1502L283.862 88.3802L283.942 88.7902L282.872 89.8902L282.302 90.2602L281.632 91.7502L281.652 92.7802L281.962 93.0502L283.412 93.2702L283.812 92.9002ZM214.162 66.9802L212.362 66.2902L209.852 66.9302L209.252 66.8102L209.082 66.5402L209.002 66.2502L209.602 65.1602L210.102 65.4602L210.512 65.4802L210.912 65.0902L210.882 63.5602L210.702 63.0902L211.592 61.5402L212.552 61.3402L214.152 65.3402L214.922 65.5402L215.732 66.2702L215.482 66.8202L214.162 66.9802ZM279.412 62.7702L279.452 62.2602L280.922 60.1302L281.852 58.2502L282.342 57.9902L281.812 60.0302L280.042 62.5102L279.802 62.7302L279.412 62.7702ZM236.992 61.5402L236.672 61.2002L236.292 60.1502L235.972 58.3202L236.802 58.0002L237.322 59.7102L237.302 60.7902L236.992 61.5402ZM285.392 111.33L284.772 110.87L284.092 109.86L284.292 109.28L284.912 108.67L285.402 109.28L285.812 110.61L285.532 111.32L285.392 111.33ZM276.132 89.3502L276.162 88.9502L275.812 88.3402L275.532 88.5302L275.702 89.0602H275.242L275.072 88.8502L275.172 87.9202L276.122 87.1702L276.582 87.2502L277.062 87.9002L276.912 88.6102L276.552 89.1902L276.132 89.3502ZM275.932 65.3502V64.8402L276.922 64.0502L277.742 64.0102L279.182 62.8902L279.082 63.4402L277.992 64.2702L275.932 65.3502ZM279.642 109.27L279.362 109.13L279.582 108.19L280.202 107.77L280.512 107.91L280.322 109.14L279.642 109.27Z" fill="#4A7C03" stroke="#4A7C03" stroke-width="2"/>
<path d="M37.722 229.05L37.912 228.68L37.922 227.21L35.492 224.64L34.202 222.22L33.022 219.23L31.872 218.53L30.892 215.75L30.8019 215.22L30.9219 214.14L30.2519 213.03L28.8819 211.43L28.492 210.29L28.432 207.94L28.872 206.8L29.1119 205.34L30.042 202.34L30.792 200.84L32.332 199.63L32.6019 198.62L32.752 197.27L32.5119 195.71L33.142 193.79L33.022 192.65L32.4319 191.02L31.542 189.76L31.382 188.81L32.9419 185.65L34.392 181.48L35.442 179.92L36.082 179.56L36.882 179.42L37.022 179.7L36.482 180.72L35.952 183.79L36.652 185.27L36.312 187.43L36.782 187.91L39.152 186.91L39.452 185.66L40.112 183.97L41.902 180.86L42.182 179.9L45.352 178.14L46.542 178.05L48.632 177.01L50.872 176.15L52.692 174L53.352 173.49L54.722 172.9L56.012 170.96L58.562 169.77L58.842 169.03L59.532 168.65L60.192 168.57L61.992 167.93L63.412 167.05L64.512 166.12L65.392 166.31L65.862 166.78L66.342 166.91L68.412 165.8L69.482 166.17L69.832 166.57L70.592 166.91L71.402 167.06L72.092 167.05L75.122 166.43L76.912 165.65L79.292 163.36L80.482 162.65L80.632 162.94L81.092 162.95L84.462 162.39L85.682 162.46L87.242 161.94L88.862 160L89.182 159.13L90.272 158.3L91.452 158.19L94.112 158.85L95.712 159.47L97.922 158.33L102.852 157.61L103.912 157.26L109.792 154.81L111.412 153.97L114.122 151.71L116.422 148.6L118.062 145.07L119.562 143.05L119.432 142.13L119.822 141.27L120.082 141.02L120.792 141.19L121.332 140.9L122.132 140.26L122.712 139.41L123.382 139.08L125.652 137.29L125.982 136.49L125.922 135.87L125.602 135.57L124.742 135.33L124.252 134.6L124.132 132.46L123.492 130.8L123.522 128.59L123.862 127.24L124.752 125.71L126.082 124.45L126.822 123.98L128.202 123.97L127.652 122.74L128.112 122.12L128.412 122L128.652 122.23H128.912L130.132 121.81L130.242 121.49L129.962 121.08L130.222 119.99L130.532 119.64L131.102 119.52L131.672 118.89L131.732 118.27L131.962 117.9L132.732 117.62L133.472 118.36L133.242 118.65L132.702 118.59L132.342 119.84L133.032 120.78L133.862 121.3L134.082 122.16L136.162 126.05L138.832 130.32L139.072 131.25L139.272 130.26L138.902 129.54L138.942 128.65L139.542 126.83L139.052 125.33L139.252 124.47L139.942 124.45L141.322 126.12L142.122 126.84L142.512 127.01L142.782 126.86L142.362 126.66L141.862 126.04L141.472 124.48L142.502 123.3L142.142 123.11L141.312 123.36L141.142 123.24L140.612 122.11L139.422 120.82L139.482 119.59L138.262 119.61L137.432 118.86L138.172 118.83L139.772 119.19L140.512 118.07L140.602 117.49L140.492 117.05L139.282 116.81L138.892 116.46L138.862 115.47L139.012 115.15L140.702 114.78L141.572 115.46L141.332 115.99L140.772 116.14L141.932 117.36L142.502 117.48L142.522 117.04L143.302 115.98L144.622 116.17L145.202 116.43L145.492 116.62L145.882 117.55L146.182 117.76L147.302 117.82L147.862 117.18L148.852 117.66L149.972 117.77L151.602 117.54L152.762 118.05L153.382 117.79L152.542 117.71L151.262 117.11L150.372 116.9L149.802 116.86L148.912 117.12H148.242L148.052 116.92L147.782 115.71L148.372 114.37L148.812 114.27L149.332 115.06L150.142 114.5L150.062 113.47L150.382 112.3L151.602 111.07L150.992 110.82L150.402 110.99L149.522 112.49L149.012 112.5L148.062 111.68L147.752 109.48L148.682 107.35L149.022 107.2L150.032 107.78L150.842 107.36L151.032 107.08L150.912 104.93L151.372 104.82L153.622 105.97L154.502 106.82L156.542 107.81L155.402 106.8L155.342 106.55L155.862 105.6L155.632 105.36L154.702 105.35L153.622 105.75L153.502 105.11L153.902 104.55L154.322 104.35L154.632 104.55L155.062 103.81L154.722 103.72L153.302 104.66L153.002 104.65L152.682 103.8L153.032 103.35L153.502 103.13L154.142 103.32L154.372 103.25L154.942 102.85L154.782 102.47L155.432 102.01L156.182 103.7L156.372 103.82L156.482 103.34L156.342 102.38L157.622 103.13L157.652 103.53L158.082 103.74L159.092 103.69L159.312 103.48L159.122 103.32L158.792 103.35L158.502 103.09L158.822 102.78L157.642 101.94L156.572 101.41L156.932 100.99L157.222 100.89L156.062 99.1703L157.232 97.5003L158.242 96.6603L158.812 96.9003L160.992 96.9503L161.102 95.5903L160.892 94.2803L161.032 93.5303L161.312 93.3203L162.512 93.8903L161.572 97.8703L161.772 97.6603L162.442 95.3503L163.752 96.0203L163.552 97.2203L163.762 97.6103L164.402 98.0103L165.362 96.9403L165.872 96.5803L166.182 94.6703L167.012 92.9803L167.052 92.2803L166.342 90.4603L165.652 90.0203L166.192 89.9003L167.062 90.0303L167.812 90.4103L167.722 91.2503L167.162 91.4903L167.532 92.7103L167.992 92.8403L168.572 93.4303L168.852 92.9903L168.652 92.4003L169.082 91.4003L170.142 90.5603L170.912 90.4503L170.402 91.7003L171.632 93.2903L171.982 93.3903L173.102 92.2103L174.032 90.5203L173.562 88.5603L174.782 88.0703L175.842 87.8203L176.512 88.3603L177.132 89.1603L176.942 89.5803L177.712 90.5303L177.982 90.1003L177.992 89.7403L178.942 89.7003L180.932 90.3403L181.972 91.8103L183.462 92.8103L186.712 97.3303L187.182 97.1003L189.022 98.6803L189.222 99.7703L188.702 100.52L187.932 103.12L188.042 104.3L187.972 106.43L187.402 107.57L187.922 107.27L188.222 106.85L188.602 104.39L189.142 104.61L189.962 105.42L190.282 106.48L190.332 105.4L189.602 104.13L189.252 102.73L190.492 101.03L190.712 101.07L191.002 102.5L192.032 102.53L192.142 102.02L191.712 101.24L191.372 99.7703L192.982 99.3103L198.022 100.57V106.47V127.46L198.082 229.05L197.952 299.27L195.702 300.25L193.112 301.76L189.082 303.59L187.232 304.33L184.252 304.91L179.882 306.6L177.602 307L172.852 307.22L169.732 306.92L167.342 306.23L166.142 306.82L165.092 306.59L163.292 307.57L160.132 310.17L159.362 310.51L157.822 310.84L154.492 312.68L153.232 313.81L151.792 314.68L148.062 315.29L146.752 315.81L145.752 316.63L144.842 317.79L143.712 321.07L143.202 323.22L142.162 323.95L141.182 324.98L140.812 325.72L140.802 326.07L140.322 326.6L138.692 327.71L136.822 327.57L136.542 327.68L135.892 328.56L135.392 328.94L134.652 329.18L133.922 327.46L133.022 327.08L131.142 327.72L129.892 327.54L128.412 327.6L128.212 327.8L126.662 327.96L125.802 327.79L125.192 328.03L124.802 328.48L124.682 329.14L123.242 329.29L122.822 329.15L123.052 328.66L122.732 327.53L122.102 326.72L121.882 326.64L121.042 326.79L120.442 327.36L119.562 327.61L116.762 326.6L116.092 326.55L114.732 326.52L111.642 327.06H109.592L108.822 327.47L106.092 327.85L104.752 328.59L102.972 328.14L100.282 328L98.202 328.64L97.402 329.52L96.072 330.23L95.502 330.88L94.602 332.46L94.452 333.26L92.912 334.77L91.642 335.52L90.232 335.02L88.412 334.85L86.542 336.12L86.322 336.45L86.702 336.87L86.322 337.3L85.442 337.84L83.692 338.41L83.052 339.07L82.722 339.94L81.572 340.8L79.402 341.96L76.752 342.44L76.712 342.71L76.972 342.99L78.472 343.32L77.802 343.7L76.982 343.55L76.172 342.91L75.552 342.68L74.872 342.72L74.532 342.96L74.282 343.87L73.452 343.21L71.272 342.29L67.122 342.27L66.552 342.8L66.302 342.81L64.692 342.29L63.362 342.5L61.822 342.06L59.182 340.3L56.542 339.69L55.892 338.16L54.812 336.91L53.012 335.07L51.362 333.97L49.392 332.94L48.602 332.85L47.812 333.04L47.312 333.69L46.082 332.38L46.092 331.25L45.522 327.21L45.482 324.95L45.952 322.77L46.412 322.9L47.082 323.9L48.372 324.45L49.402 324.36L50.282 324.04L50.642 323.83L53.712 319.41L53.242 315.77L52.432 311.77L52.682 310.9L53.512 309.87L53.472 310.28L52.852 310.97L52.832 311.49L53.272 312.74L53.572 313.19L53.772 313.05L53.752 312.35L54.252 310.51L53.932 307.29L54.182 305.64L53.992 304.41L54.052 301.84L53.642 299.59L53.382 298.88L50.732 294.05L49.982 291.81L49.352 290.35L47.802 287.65L46.492 284.3L46.572 283.96L46.232 281.42L45.512 278.94L45.292 278.75L45.342 273.9L45.732 271.63L45.192 269.74L44.912 269.29L44.742 268.13L44.172 266.78L41.832 264L41.532 263.09L41.452 261.07L40.572 259.29L38.452 256.12L37.632 255.62L36.792 254.42L36.142 251.49L36.282 250.58L36.642 249.73L36.432 248.46L35.902 246.61L34.422 243.54L32.922 240.73L30.602 237.38L27.292 233.86L26.682 231.93L27.182 230.93L27.1119 229.82L27.1519 229.53L27.3619 229.38L27.542 231.72L27.872 232.4L28.2119 230.48L29.8219 232.47L30.042 233.12L30.1719 235.17L30.4219 235.91L31.2219 236.93L31.5619 237L31.592 236.69L32.292 236.21L32.752 236.32L33.532 235.16L33.592 233.1L32.8119 232.06L31.3219 231.08L30.222 229.94L29.5919 227.34L28.492 225.56L28.682 224.57L29.3419 223.52L29.6519 223.75L30.662 225.57L31.8119 226.56L32.212 227.69L31.952 229.11L31.6519 229.44L31.6819 230.46L32.002 231.39L32.552 231.44L32.922 231.04L33.792 229.36L34.362 232.18L34.662 232.95L35.862 234.56L37.222 233.49L37.512 232.52L37.182 232.05L36.972 231.2L37.342 228.87L37.722 229.05ZM26.492 230.78L26.172 230.52L24.562 228.08L23.752 226.45L23.252 224.57L23.322 223.52L23.752 222.9L24.292 223.03L24.072 223.56L24.112 223.89L25.392 227.55L26.492 229.55L26.712 230.34L26.492 230.78ZM149.342 107.02L149.252 106.71L148.672 106.17L148.762 105.67L149.032 105.24L149.742 104.95L150.682 106.52L149.342 107.02ZM49.972 168.78L49.602 168.47L49.332 168.73L49.252 168.64L49.262 168.03L50.372 166.53L50.732 166.31L50.862 166.38L51.012 167.17L50.962 167.52L50.332 168.5L49.972 168.78ZM156.032 98.1203L155.462 97.8103L155.532 96.9603L155.782 96.3203L156.292 95.7903L156.792 96.3503L156.542 97.5703L156.152 97.7603L156.032 98.1203Z" fill="#4A7C03" stroke="#4A7C03" stroke-width="2"/>
<path d="M425.682 375.75L406.432 366.05L405.452 365.97L406.332 364.45L406.442 363.48L405.442 361.44L404.752 360.56L404.192 356.14L403.012 355.39L401.192 354.61L400.262 354.97L398.732 354.68L397.722 354.85L396.712 356.11L395.732 356.2L393.912 356.84L392.452 356.74L390.032 355.98L389.062 355.22L387.942 355.05L387.262 355.14L386.882 355.54L385.742 356.03L383.492 355.83L380.392 355.24L379.632 354.92L378.352 353.69L377.562 353.07L377.292 353.04L376.472 353.22L375.522 353.74L374.572 353.65L374.202 353.35H372.872L371.512 353.7L371.312 353.94L370.932 355.32L371.102 356.68L369.182 357.22L368.762 357.11L367.422 356.33L365.142 353.66L364.582 352.38L364.332 352.12L363.712 351.92L362.612 350.94L361.772 349.78L359.912 348.79L358.242 347.52L357.472 347.24L357.022 347.34L356.352 346.84L356.172 346.56L356.422 345.8L356.002 345.15L355.122 344.93L354.312 344.43L353.812 343.33L353.522 341.68L353.782 340.37L353.792 339.54L353.652 339.33L351.342 338.07L349.722 337.96L348.442 337.44L348.292 337.08L347.612 336.63L346.992 336.84L346.802 337.11L346.452 338.66L345.962 339.28L345.042 339.1L344.672 338.67L344.702 338.41L344.122 336.86L343.182 335.99L343.132 334.11L341.622 331.57L340.752 330.97L339.502 330.4L337.802 330.75L336.192 330.33L335.232 330.7L334.622 331.54L334.092 331.82L333.902 331.56L332.692 330.82L330.912 329.99L329.042 329.85L328.712 329.76L328.202 329.26L328.252 265.56L329.542 265.55L351.342 265.56H368.252H382.032H414.562L415.392 265.15L416.662 263.56L420.132 260.61L421.332 260.28L421.612 260.33L421.782 260.69L422.732 260.97L426.072 260.68L427.632 260.08L429.102 259.9L429.402 259.97L430.232 260.83L430.982 261.34L432.792 261.39L434.432 261.05L437.172 262.3L439.942 264.69L440.072 266.57L440.512 267.55L440.752 267.66L441.282 267.53L441.802 266.98L442.782 264.98L444.652 264.15L445.052 264.92L445.722 265.24L447.802 264.24L448.152 262.23L447.172 260.01L448.222 259.18L449.442 258.58L451.602 257.87L452.042 257.57L452.262 257.01L452.882 256.49L453.362 256.56L454.072 257.29L455.852 257.68L457.882 257.47L459.672 257.59L460.502 256.49L461.952 256.22L463.142 255.76L463.952 255.1L464.732 255.81L464.882 256.62L464.532 259.29L464.732 260.69L465.232 261.37L465.032 263.85L463.322 266.09L462.122 269.61L462.422 270.48L461.212 277.37L460.682 279.39L458.662 285.07L458.522 288.42L458.692 289.03L459.072 289.08L459.262 289.85L458.152 293.57L457.942 295.04L456.802 298.81L455.842 300.77L453.642 303.55L453.142 304.85L453.462 306.54L453.332 308.33L451.442 309.93L450.632 310.87L448.962 311.91L448.872 312.46L449.142 313.04L447.062 313.77L445.532 314.56L443.982 316.89L442.952 319.44L442.712 319.64L442.162 319.68L441.652 320.09L441.542 320.68L442.002 321.09L441.652 322.48L440.412 324.14L439.942 327.64L439.682 328.58L439.292 328.88L438.662 328.81L437.812 329.15L438.412 329.31L438.852 329.72L437.972 331.15L436.992 331.88L436.022 333.31L435.002 336.28L435.442 336.82L434.902 339.28L434.202 339.72L433.982 340.48L434.362 341.59L435.122 342.38L434.952 343.26L434.662 343.51L434.302 343.12L434.432 342.85L434.282 342.24L433.992 342.21L433.302 342.64L433.222 343.08L433.502 343.76L432.892 344.44L431.732 345.08L431.142 346.19L431.082 346.75L430.282 349.07L429.732 349.96L427.632 354.56L427.362 356.85L427.342 359.75L426.712 360.57L426.132 363.79L425.512 366.04L424.822 367.78L424.872 369.75L425.952 371L426.092 371.94L426.082 372.39L425.762 372.29L425.302 372.63L425.322 374.21L425.682 375.75Z" fill="#4A7C03" stroke="#4A7C03" stroke-width="2"/>
<path d="M277.262 331.55L276.182 333.29L275.302 333.68L274.372 335.27L273.252 335.97L272.582 337.3L271.812 339.63L272.082 339.76L272.562 339.7L274.012 338.68L274.162 339.37L273.992 341.96L273.472 342.18L273.182 341.63L272.272 340.62L271.622 340.22L270.942 340.32L270.462 341.45L270.072 341.44L269.662 340.65L268.232 338.78L266.622 337.12L265.772 336.44L265.422 336.33L264.302 336.72L264.732 335.53L265.352 334.64L265.402 335.46L266.822 336.98L267.392 337.37L268.472 337.02L267.372 336.58L267.232 336.17L267.172 335.83L267.352 335.43L266.872 332.73L266.042 330.52L265.912 329.04L265.182 327.91L263.442 325.95L261.352 324.25L261.652 323L261.542 322.1L261.002 320.56L259.902 318.29L258.662 317.81L256.652 318.13L255.792 318.62L255.132 317.88L255.142 317.55L254.342 315.42L253.022 312.42L253.892 312.48L254.322 312.88L254.472 313.53L255.212 312.52L255.432 311.86L255.212 310.72L254.442 309.63L253.762 309.04L253.452 308.99L251.732 309.53L251.032 310.2L250.622 310.12L250.642 309.08L250.952 308.37L251.502 308.59L251.682 308.29L250.332 306.41L249.242 305.77L248.562 305.16L248.682 304.69L247.942 304.46L247.672 304.68L247.512 305.33L246.622 305.89L243.162 305.65L242.832 305.57L242.072 304.75L241.072 304.39L239.542 302.94L239.022 302.66L236.842 302.4L235.802 302.61L234.992 303.36L234.052 303.69L233.372 303.74L232.622 303.55L230.792 301.7L227.992 299.67L223.602 297.4L221.252 296.52L220.892 296.56L219.782 297.46L217.952 298.17L217.402 298.24L211.642 297.81L210.402 297.85L208.092 298.03L207.032 298.3L200.452 298.86L197.952 299.27L198.012 229.09L207.722 229.02L222.192 229.03L295.652 229.02H328.222L328.252 265.57L328.202 329.27L327.922 328.9L327.882 383.3L326.612 383.17L325.752 383.43L324.962 383.4L323.132 382.42L321.242 380.52L319.962 377.93L318.692 376L317.912 375.45L317.302 375.48L315.352 372.86L314.672 371.5L315.012 370.8L314.982 370.25L314.472 368.98L314.672 367.73L315.442 367.09L315.862 366.01L315.852 364.2L315.452 362.77L313.552 358.14L310.552 354.14L308.572 352.01L307.412 351.07L307.942 351.24L310.902 353.83L312.862 356.52L313.692 358.23L313.572 357.3L313.072 355.89L312.662 355.28L311.372 353.79L307.592 350.17L307.572 348.99L308.242 348.72L309.062 349.43L308.962 351.1L309.132 351.33L310.152 351.22L310.432 350.06L310.562 348.29L310.382 347.02L308.822 346.25L307.982 347.08L307.382 347.26L306.742 347.23L306.192 347.47L305.972 348.01L306.082 348.36L306.702 348.56L306.912 348.82L306.422 349.45L303.492 349.2L302.722 349.52L302.072 350.31L301.482 350.72L297.562 350.93L296.672 350.26L297.322 349.11L298.762 348.39L300.422 346.6L300.732 344.85L300.602 344.39L300.712 343.55L301.242 342.39L300.882 340.25L301.132 339.07L301.042 338.49L300.382 337.35L298.642 335.22L298.042 333.06L296.662 330.71L296.402 330.77L295.742 332.31L296.032 332.89L295.872 333.44L294.842 334.5L294.462 335.81L294.312 338.25L292.942 342.71L292.932 343.81L292.132 344.46L290.592 343.76L289.802 343.56L289.382 343.64L287.342 344.41L286.882 345.16L286.622 345.33L285.112 345.1L284.272 345.84L283.652 346.07L283.302 345.9L282.992 345.38L283.392 344.73L284.132 344L284.392 343.37L284.572 341.51L285.082 340.76L285.992 341.12L286.922 340.87L287.882 340.81L288.072 341.11L289.002 341.53L289.542 341.24L289.762 340.69L290.242 337.55L290.052 335.1L290.182 332.67L289.732 331.02L289.892 330.8H290.422L290.742 330.18L291.292 328.36L291.382 327.42L293.282 324.99L294.502 323.79L294.962 323.66L295.142 323.19L294.792 321.66L293.692 319.55L294.022 318.57L294.642 318.13L295.222 317.9L295.922 317.88L296.222 317.64L296.142 316.98L295.812 316.35L295.222 316.1L294.592 313.24L294.022 311.97L293.722 310.42L293.142 309.98L293.052 312.07L293.302 312.21L293.552 312.65L293.622 314.02L293.262 315.88L292.692 315.91L291.312 316.35L290.152 317.61L289.032 319.84L288.972 320.91L288.772 321.51L287.132 324.58L286.392 325.2L285.072 325.25L284.302 324.78L283.592 325.84L283.792 325.98L283.372 326.42L280.292 328.05L278.482 329.47L277.862 330.11L277.802 330.53L277.262 331.55ZM294.692 351.73L296.342 352.18L296.872 352.9L296.882 353.6L296.092 354.31L294.802 353.68L293.062 353.55L291.532 354.27L291.332 354.55L291.472 355.47L291.162 355.78L289.742 356.48L288.682 355.4L287.252 355.13L286.852 355.26L286.732 355.75L286.422 355.93L285.132 355.81L283.702 356.03L281.662 356.09L281.312 355.51L279.772 354.23L279.722 353.76L280.232 352.26L284.212 351.08L285.062 351.07L286.082 350.83L288.222 349.88L290.492 350.07L291.132 350.68L291.122 351.76L291.272 351.96L292.312 352.1L293.382 352.71L294.022 352.76L294.692 351.73Z" fill="#4A7C03" stroke="#4A7C03" stroke-width="2"/>
<path d="M421.352 378.79L420.032 379.44L418.432 379.6L413.182 379.63L411.362 379.89L409.572 379.82L407.562 379.96L403.812 381.07L401.592 382.17L399.222 383.97L397.392 385.68L395.662 387.4L393.022 390.47L391.982 391.39L389.552 391.7L387.172 392.3L386.322 392.03L385.332 392.09L384.882 392.28L384.502 392.85L385.712 395.06L386.962 394.18L387.192 393.34L387.582 393.52L387.742 397.28L387.102 398.09L386.762 398.26L386.252 398.02L385.952 397.57L385.162 395.5L384.022 394.07L383.182 393.71L382.652 393.88L382.502 394.31L381.432 394.22L380.552 392.44L380.812 392.02L380.472 391.38L379.512 391.23L378.762 391.73L378.212 391.82L377.762 391.56L376.132 389.91L376.312 388.62L377.272 388.22L377.652 387.55L376.892 385.81L376.442 385.52L374.392 385.67L373.932 387.21L371.952 389.25L370.992 389.44L370.552 389.37L369.032 387.6H370.322L371.462 387.09L373.052 384.29L372.702 383L371.362 380.93L370.732 380.61L369.722 381.07L368.272 382.46L366.492 383.79L364.962 383.95L364.772 384.14L364.832 384.64L366.332 384.9L367.172 384.61L367.672 384.24L368.422 384.45L368.582 384.85L368.462 385.46L367.902 386.32L367.632 386.52L366.702 386.3L365.032 386.66L364.682 386.87L361.412 389.08L359.032 392.01L357.832 392.34L357.432 392.62L357.192 393.23L355.782 394.27L355.372 394.16L354.702 393.37L354.092 393.01L351.842 392.29L351.332 391.77L350.412 391.2L349.582 391.09L347.752 390.35L344.842 388.1L343.152 387.43L341.952 387.72L341.752 387.95L340.772 387.93L339.712 387.32L338.652 386.44L337.092 386.1L336.332 386.09L335.552 386.31L334.912 386.85V387.28L335.242 387.93L334.382 388.17L333.112 387.55L332.172 386.41L330.282 384.64L329.312 384L327.842 383.32L327.882 328.92L328.162 329.29L328.672 329.79L329.002 329.88L330.872 330.02L332.652 330.85L333.862 331.59L334.052 331.85L334.582 331.57L335.192 330.73L336.152 330.36L337.762 330.78L339.462 330.43L340.712 331L341.582 331.6L343.092 334.14L343.142 336.02L344.082 336.89L344.662 338.44L344.632 338.7L345.002 339.13L345.922 339.31L346.412 338.69L346.762 337.14L346.952 336.87L347.572 336.66L348.252 337.11L348.402 337.47L349.682 337.99L351.302 338.1L353.612 339.36L353.752 339.57L353.742 340.4L353.482 341.71L353.772 343.36L354.272 344.46L355.082 344.96L355.962 345.18L356.382 345.83L356.132 346.59L356.312 346.87L356.982 347.37L357.432 347.27L358.202 347.55L359.872 348.82L361.732 349.81L362.572 350.97L363.672 351.95L364.292 352.15L364.542 352.41L365.102 353.69L367.382 356.36L368.722 357.14L369.142 357.25L371.062 356.71L370.892 355.35L371.272 353.97L371.472 353.73L372.832 353.38H374.162L374.532 353.68L375.482 353.77L376.432 353.25L377.252 353.07L377.522 353.1L378.312 353.72L379.592 354.95L380.352 355.27L383.452 355.86L385.702 356.06L386.842 355.57L387.222 355.17L387.902 355.08L389.022 355.25L389.992 356.01L392.412 356.77L393.872 356.87L395.692 356.23L396.672 356.14L397.682 354.88L398.692 354.71L400.222 355L401.152 354.64L402.972 355.42L404.152 356.17L404.712 360.59L405.402 361.47L406.402 363.51L406.292 364.48L405.412 366L406.392 366.08L425.642 375.78L424.792 376.32L423.552 376.43L422.332 378.29L421.352 378.79ZM375.512 388.34L374.732 388.04L374.592 387.41L374.862 386.52L376.602 386.88L377.042 387.4L376.922 387.6L376.222 387.61L375.512 388.34ZM375.492 390.26L375.122 389.81L374.592 389.58L372.912 389.72L372.942 389.57L373.702 388.83L374.712 388.63L375.002 388.82L375.582 390.21L375.492 390.26Z" fill="#4A7C03" stroke="#4A7C03" stroke-width="2"/>
<path d="M425.682 188.41V188.59L426.352 189.23L425.792 187.3L425.082 185.84L425.092 185.29L425.512 184.18L425.942 183.62L426.422 183.49L426.802 183.65L427.632 184.93L428.122 186.32L429.442 186.86L431.162 188.04L432.392 188.6L431.762 187.11L431.752 186.23L432.052 185.62L432.842 185.76L433.612 186.91L433.292 187.65L433.372 188.22L434.842 190.31L434.152 194.98L434.762 196.24L434.632 197.92L435.352 199.38L436.232 199.86L437.042 199.98L437.352 200.69L438.092 201.25L438.612 202.75L439.382 203.17H439.742L440.252 203.53L441.402 204.95L442.142 205.17L442.722 205.63L442.552 205.9L442.622 206.23L442.922 206.35L443.452 205.83L443.472 205.19L443.732 204.94L444.212 205.08L445.342 206.38L446.922 207.79L447.752 210.26L449.072 212.42L450.652 213.63L452.182 214.23L452.722 214.85L453.042 215.62L453.152 217.05L454.932 220L456.422 220.45L457.492 220.52L457.912 222.28L457.782 223.34L457.342 223.79L457.402 225.19L457.642 225.86L458.002 226.2L458.332 226.29L458.912 227.71L460.472 228.42L460.512 228.71L459.992 229.84L459.282 232.74L459.482 233.52L459.752 237.09L460.052 237.82L460.202 242.09L459.532 242.3L458.872 243.23L459.202 244.89L460.392 245.81L461.272 246.91L461.952 249.24L462.872 250.53L463.192 251.4L462.952 253.03L463.492 254.39L463.992 255.09L463.182 255.75L461.992 256.21L460.542 256.48L459.712 257.58L457.922 257.46L455.892 257.67L454.112 257.28L453.402 256.55L452.922 256.48L452.302 257L452.082 257.56L451.642 257.86L449.482 258.57L448.262 259.17L447.212 260L448.192 262.22L447.842 264.23L445.762 265.23L445.092 264.91L444.692 264.14L442.822 264.97L441.842 266.97L441.322 267.52L440.792 267.65L440.552 267.54L440.112 266.56L439.982 264.68L437.212 262.29L434.472 261.04L432.832 261.38L431.022 261.33L430.272 260.82L429.442 259.96L429.142 259.89L427.672 260.07L426.112 260.67L422.772 260.96L421.822 260.68L421.652 260.32L421.372 260.27L420.172 260.6L416.702 263.55L415.432 265.14L414.602 265.55H382.072H368.252H351.352L329.552 265.54L328.252 265.57L328.232 229.03H295.662V119.48L297.772 121.2L298.812 121.6L300.942 122.11L302.602 122.01L303.122 122.39L304.812 123.1L306.632 123.36L308.052 125.33L308.282 126.79L308.832 127.85L309.352 128.36L310.182 128.65L311.272 128.78L312.342 129.49L313.222 130.38L315.372 131L316.112 131.44L317.162 132.38L317.592 132.56L318.822 132.63L321.692 132.11L323.182 131.56L324.112 131.06L325.612 129.9L326.432 129.61L327.002 128.57L327.612 126.21L327.772 124.52L330.352 121.17L331.352 118.91L331.672 117.27L332.882 114.09L332.602 112.2L333.252 108.06L335.142 103.73L335.482 102.36L334.412 99.4198L333.922 96.2698L334.082 95.3498L334.702 93.7598L334.782 92.5198L334.542 91.6498L333.452 90.3498L333.362 89.0098L334.152 85.7298L335.742 82.6398L335.622 82.1498L335.122 81.5898L334.632 79.6698L334.722 79.3498L334.862 79.0998L335.972 78.3998L336.392 77.8898L336.922 76.4198L337.572 76.6198L337.922 77.2198L337.932 78.1098L338.392 78.8098L338.482 78.3398L337.872 76.5598L337.392 76.2098L336.072 74.2298L336.392 73.9698L336.182 73.8098L335.472 73.7598L335.382 74.4098L335.722 74.8698L335.092 75.0698L334.712 74.8998L334.732 74.6498L335.752 72.4398L336.702 71.1298L336.532 70.7498L337.022 69.3498L337.492 68.6498L337.962 68.4398L338.232 69.7598L339.392 69.5298L339.482 69.2598L338.602 68.3998L338.562 67.9498L338.802 66.6698L340.472 61.8698L340.862 59.4198L340.642 57.4898L340.742 57.2198L341.142 56.9298L342.862 56.6298L343.472 55.8198L343.962 54.5898L344.772 54.5598L345.792 55.0398L345.452 55.5598L344.732 56.2198L344.652 57.2298L345.342 56.3498L345.732 56.3798L347.202 57.6298L347.672 58.6598L348.512 62.0798L348.232 63.3998L348.532 65.6498L348.452 66.9398L349.632 67.9798L350.382 68.0398L351.092 67.7198L351.402 67.8398L352.132 68.6398L351.082 70.3298L350.862 71.2598L350.812 72.4698L351.372 72.6298L351.712 72.5398L352.672 73.0098L352.972 73.3398L353.012 74.4998L353.492 74.9998L353.902 75.0398L354.642 75.5998L354.042 76.9898L353.902 78.1598L354.372 78.3998L355.442 78.2798L355.552 78.4998L355.382 80.9298L355.632 83.2098L355.712 83.6098L356.142 84.0198L356.422 84.6198L356.332 85.6598L355.722 88.2198L356.492 90.2198L357.412 91.1898L357.552 92.9898L357.972 94.4798L358.462 95.5298L358.832 95.9298L359.612 96.3498L360.962 96.3598L362.502 95.1598L365.562 93.7598L366.012 92.7498L366.442 92.8498L367.122 93.8698L366.992 94.9298L367.512 96.3398L368.192 97.1498L369.832 97.7798L370.572 97.8298L371.252 99.3398L373.932 100.55L375.122 101.48L375.052 102.14L374.232 103.59L374.272 104.25L374.702 104.96L374.842 105.79L374.402 107.08L375.012 108.29L375.602 110.3V112.33L376.152 112.88L376.722 114.21L376.542 116.51L376.132 117.08L376.062 118.24L376.162 118.57L376.732 118.93L380.442 123.56L380.802 123.26L381.812 123.09L382.072 123.41L381.232 125L381.282 125.35L382.052 126.67L382.902 128.66L383.482 130.79L383.682 132.36L383.482 133.44L383.642 134.6L383.572 135.35L382.572 137.47L382.652 138.56L384.852 141.44L386.172 141.94L386.092 143.21L385.602 144.35L385.462 145.56L385.562 145.94L386.192 146.78L387.142 147.52L387.412 148.04L388.682 148.87L389.652 149.33L390.842 149.36L392.172 150.69L392.912 150.72L394.202 151.14L394.932 151.83L396.172 152.09L398.112 151.94L398.272 151.6L397.782 150.75L398.402 151.46L399.452 153.35L399.882 155.55L400.142 156.08L400.692 156.67L401.282 156.81L401.782 156.69L401.612 155.76L401.692 155.36L402.352 155.37L402.672 155.71L402.802 156.98L403.322 157.47L403.972 157.75L405.332 157.69L406.672 158.08L407.532 159.12L407.182 159.26L407.272 159.57L407.912 160.36L408.772 161.06L409.342 160.81L409.382 160.13L409.042 159.82L409.192 159.42L409.942 159.7L411.582 161.17L412.622 161.36L412.992 161.87L413.682 163.81L414.092 163.92L414.422 164.84L413.812 164.69L413.292 164.16L412.852 163.95L412.322 164.17L411.522 165.16L412.192 166.96L413.502 168.33L414.282 168.87L415.442 169.28L416.882 170.4L417.472 171.15L417.362 172.01L417.742 173.45L418.282 173.91L418.702 175.29L419.322 176.38L419.942 176.97L419.802 179.18L420.792 182.72L421.542 184.54L422.232 185.53L422.702 185.91L422.732 187.1L422.402 187.6L423.132 187.23L423.712 186.75L423.982 186.3L425.682 188.41ZM459.382 226.59L458.912 226.49L458.472 225.9L457.882 223.75L458.462 222.33L459.192 221.12L459.182 220.09L459.032 219.83L459.482 218.89L460.612 217.98L461.112 217L461.202 216.47L461.092 216.06L460.442 215L460.232 214.88L460.642 214.12L461.572 213.51L461.662 215.95L461.912 216.5L462.432 216.84L462.542 217.26L459.892 223.5L459.412 225.07L459.572 226.04L459.382 226.59ZM308.122 121.8L308.012 121.14L308.302 119.99L308.922 119.13L309.832 118.44L311.712 118.21L312.302 117.89L314.392 118.23L314.452 118.89L313.982 119.11L313.272 119.26L312.802 118.88L311.802 119.28L311.962 119.63L311.292 120.74L310.082 121.2L308.512 121.49L308.122 121.8ZM439.252 202.69L438.662 202.14L438.242 201.21L437.512 200.55L437.092 199.61L436.992 198.79L437.472 198.68L438.992 199.64L439.202 199.99L439.902 201.33L440.032 202.25L439.742 202.6L439.252 202.69ZM385.652 141.42L384.902 141.13L384.692 140.09L384.212 139.44L383.712 139.2L383.442 138.7L383.892 138.59L385.432 139.31L386.332 140.61L386.012 141.23L385.652 141.42ZM462.912 249.99L462.722 249.57L462.782 248.53L463.202 246.15L463.622 246.05L464.372 246.18L463.652 248.56L463.422 249.93L462.912 249.99ZM463.112 245.51L462.392 243.49V241.85L463.322 241.34L463.562 241.52L463.002 243.64L463.112 245.51ZM341.072 55.2298L340.392 54.6798L340.342 53.9898L340.992 53.5598L341.442 53.4698L341.972 54.2698L341.902 54.6798L341.382 54.8098L341.072 55.2298ZM342.122 49.6898L341.372 49.3698L341.142 49.0098L341.562 48.3698L342.162 48.2598L342.522 48.4298L342.772 48.8698L342.122 49.6898ZM311.162 126.14L310.852 125.49L311.962 124.45L312.522 124.85L312.702 125.68L311.422 125.65L311.162 126.14Z" fill="#4A7C03" stroke="#4A7C03" stroke-width="2"/>
<path d="M392.452 462.76L391.552 463.21L391.352 462.76L389.952 462.54L389.012 461.83L388.092 461.63L385.722 461.51L385.492 461.35L385.332 460.92L385.022 460.83L383.712 461.23L382.932 460.97L381.782 459.16L382.422 458.71L383.622 458.89L384.212 459.21L385.032 459.38L385.052 458.4L384.282 457.76L383.862 458.52L380.972 458.15L380.732 457.98L379.542 455.55L378.112 453.27L377.882 453.04L377.202 453.07L376.642 452.17L376.242 451.32L375.492 448.55L375.022 448.04L374.472 447.88L373.792 443.5L373.872 442.67L374.072 442.41L374.362 442.93L376.272 444.39L376.742 446.57L377.642 444.05L377.072 443.65L376.622 443.69L374.692 441.57L374.482 440.97L374.502 440.09L374.342 439.43L373.652 438.02L372.242 436.69L371.152 434.76L368.232 427.59L368.332 427.08L368.032 425.56L367.702 424.94L367.502 423.5L368.382 422.7L368.402 421.04L369.062 420.6L371.492 420.89L372.912 421.94L374.632 421.66L375.292 422.22L377.502 422.94L381.122 425.09L384.602 426.73L386.902 426.94L387.922 426.63L388.862 427.16L388.812 426.66L389.662 425.76L390.432 425.49L391.002 425.67L391.242 426.62L391.812 426.91L392.722 426.89L392.402 426.43L391.642 426.26L391.422 426.05L391.372 425.36L391.862 424.91L393.522 424.16L394.932 424.63L397.202 424.17L397.862 424.76L398.642 424.29L399.732 422.4L399.972 422.25L400.662 422.08L400.922 422.46L402.052 422.97L402.432 422.95L403.122 422.55L403.472 421.96L403.662 421.09L403.882 420.85L404.342 420.87L405.052 421.2L406.592 422.34L407.162 423.09L407.762 424.44L407.072 426.9L407.152 427.64L407.602 428.23L407.642 429.32L407.172 431.04L407.242 432.27L407.612 433.34L407.072 436.26L407.432 439.46L408.092 440.53L408.152 442.19L407.582 443L407.192 442.67L407.142 442.32L407.432 441.95L407.562 440.99L406.792 438.92L406.322 438.15L405.062 440.65L404.242 446.58L403.752 447.08L403.592 447.92L403.712 449.44L402.932 450.25L402.492 451.73L402.642 451.97L403.112 451.94L402.912 451.51L403.232 451.27L403.922 451.69L404.202 452.24L404.262 453.27L403.852 453.54L403.682 454.83L404.262 456.14L404.162 456.98L403.892 457L403.122 456.32L402.342 456.66L401.932 457.27L400.932 456.03L400.222 454.58L400.082 453.87L400.682 452.8L401.032 452.7L401.292 452.94L401.342 453.3L401.172 453.65L401.842 454.37L402.772 454.3L403.112 454.01L402.312 452.61L399.772 451.06L399.402 451.12L398.802 451.57L399.012 452.58L399.352 453.32L399.062 453.9L397.992 454.25L397.742 453.63L397.952 453.5L397.792 452L396.812 451.37L397.152 452.23L396.912 453.77L396.282 454.54L395.992 455.62L396.212 456.66L396.052 457.63L395.682 457.87L395.302 457.82L394.432 457.26L393.642 456.33L393.492 455.39L393.262 455.3L393.032 455.67L393.022 456.67L394.392 457.92L393.952 459.02L393.382 459.91L392.842 461.48L392.682 462.56L392.452 462.76ZM405.612 414.12L404.632 413.58L404.352 412.52L404.412 412.22L403.172 409.89L401.622 408.51L402.942 406.77L403.872 406.37L406.022 409.24L406.422 409.53L407.252 409.75L407.342 410.16L407.852 412.95L407.812 413.33L407.512 413.61L406.142 413.86L405.612 414.12ZM359.942 412.17L359.562 411.89L359.422 411.16L359.622 411.01V410.03L359.002 409.22L359.032 408.45L359.222 406.18L360.072 405.55L360.202 405.18L360.092 404.37L360.552 404.24L361.522 404.83L361.972 405.48L362.122 407.77L362.382 409.24L362.282 410.01L361.952 410.75L359.942 412.17ZM407.892 417.37L407.862 416.68L407.672 416.4L405.152 416.72L404.182 416.3L404.202 415.75L404.922 415.16L405.662 415.12L406.422 415.35L407.942 414.58L409.422 416.34L409.402 416.49L408.652 416.78L407.892 417.37ZM396.642 461.2L395.952 460.88L395.262 461.03L394.692 459.84L396.612 457.47L397.312 459.3L396.832 461.04L396.642 461.2ZM397.282 457.47L396.532 455.9L397.232 454.68L397.662 455.34L398.052 457.15L398.022 457.32L397.282 457.47ZM404.372 449.93L404.422 447.97L405.052 447.49L405.612 447.54L406.102 448.5L406.052 448.65L405.292 448.66L404.372 449.93ZM370.442 420.59L370.252 420.45L370.202 419.76L370.852 418.99L371.832 420.11L370.442 420.59Z" fill="#4A7C03" stroke="#4A7C03" stroke-width="2"/>
</g>
<g clip-path="url(#clip1_9_51)">
<path d="M253.475 89.0029C267.483 88.938 282.087 90.0002 296.156 92.3359C318.153 95.9922 336.445 112.392 336.445 133.989V212.099C336.445 234.468 318.62 252.782 296.32 252.782H214.166C185.721 252.782 161.783 277.112 161.783 304.74V341.218H134.504C122.821 341.218 113.611 337 106.59 329.83C99.5463 322.638 94.6592 312.426 91.7627 300.396V300.395L91.0488 297.383C87.6037 282.512 85.962 270.386 86.001 258.431C86.0425 245.678 87.9972 233.076 91.7627 217.496V217.495C98.1981 190.701 118.715 176.673 142.173 176.673H256.291V164.252H174.041V133.989C174.041 122.207 175.623 113.392 181.311 106.742C187.011 100.077 197.004 95.3883 214.339 92.334H214.34C226.094 90.2597 239.465 89.0678 253.475 89.0029ZM208.989 112.147C199.895 112.147 192.556 119.643 192.556 128.826C192.556 137.986 199.902 145.41 208.989 145.41C218.045 145.41 225.423 137.987 225.423 128.826C225.423 119.641 218.052 112.148 208.989 112.147Z" fill="url(#paint0_linear_9_51)" stroke="black" stroke-width="2"/>
<path d="M378.571 176.673C390.249 176.673 398.781 181.012 405.143 188.229C411.341 195.259 415.521 205.068 418.446 216.401L418.725 217.503C426.916 250.342 427.257 274.85 418.748 300.313L418.747 300.314C414.592 312.789 410.336 323.016 404.221 330.131C398.164 337.179 390.242 341.218 378.571 341.218H254.291V353.639H336.446V383.901C336.446 395.405 331.501 404.07 323.991 410.625C316.688 417 306.956 421.375 297.006 424.342L296.043 424.625C265.088 433.583 240.315 432.212 214.447 424.626C192.786 418.272 174.041 405.41 174.041 383.901V305.792L174.054 304.766C174.611 283.269 192.575 265.108 214.166 265.108H296.32C324.253 265.108 348.703 240.886 348.703 212.099V176.673H378.571ZM301.497 372.481C292.441 372.481 285.063 379.904 285.063 389.065C285.063 398.249 292.435 405.743 301.497 405.743C310.591 405.743 317.931 398.248 317.931 389.065C317.931 379.905 310.584 372.481 301.497 372.481Z" fill="url(#paint1_linear_9_51)" stroke="black" stroke-width="2"/>
<path opacity="0.44382" d="M256.224 500C317.098 500 366.446 490.457 366.446 478.684C366.446 466.912 317.098 457.369 256.224 457.369C195.35 457.369 146.002 466.912 146.002 478.684C146.002 490.457 195.35 500 256.224 500Z" fill="url(#paint2_radial_9_51)"/>
</g>
<defs>
<linearGradient id="paint0_linear_9_51" x1="85" y1="88" x2="274.231" y2="249.685" gradientUnits="userSpaceOnUse">
<stop stop-color="#5A9FD4"/>
<stop offset="1" stop-color="#306998"/>
</linearGradient>
<linearGradient id="paint1_linear_9_51" x1="299.52" y1="386.436" x2="231.72" y2="291.171" gradientUnits="userSpaceOnUse">
<stop stop-color="#FFD43B"/>
<stop offset="1" stop-color="#FFE873"/>
</linearGradient>
<radialGradient id="paint2_radial_9_51" cx="0" cy="0" r="1" gradientUnits="userSpaceOnUse" gradientTransform="translate(256.224 478.684) rotate(-90) scale(21.3156 93.9435)">
<stop stop-color="#B8B8B8" stop-opacity="0.498039"/>
<stop offset="1" stop-color="#7F7F7F" stop-opacity="0"/>
</radialGradient>
<clipPath id="clip0_9_51">
<rect width="443" height="416" fill="white" transform="translate(23 48)"/>
</clipPath>
<clipPath id="clip1_9_51">
<rect width="341" height="412" fill="white" transform="translate(85 88)"/>
</clipPath>
</defs>
</svg>
