<svg width="512" height="512" viewBox="0 0 510 510" fill="none" xmlns="http://www.w3.org/2000/svg">
<g clip-path="url(#clip0_2_3)">
<rect width="514" height="514" rx="256" fill="#3776AB"/>
<path d="M50.6151 293.381L26.5805 180.308L63.8283 172.39C75.69 169.869 85.1948 170.977 92.3426 175.714C99.6013 180.428 104.291 187.774 106.412 197.751L108.285 206.564C110.406 216.541 109.121 225.214 104.431 232.584C99.8276 239.819 91.5953 244.697 79.7336 247.219L62.4399 250.894L70.5693 289.14L50.6151 293.381ZM67.893 191.513L50.5994 195.189L58.3753 231.772L75.6689 228.096C80.5466 227.059 84.0011 225.05 86.0324 222.069C88.1746 219.065 88.7744 215.346 87.8319 210.911L85.9586 202.098C85.0396 197.775 82.9907 194.677 79.8117 192.803C76.7436 190.906 72.7707 190.476 67.893 191.513ZM179.461 274.684C177.97 285.661 174.869 293.967 170.158 299.603C165.47 305.35 158.194 309.272 148.327 311.369L144.263 292.246C150.091 290.776 154.409 288.467 157.216 285.322C160.158 282.263 162.012 278.451 162.78 273.885L163.463 269.742L115.375 191.501L134.332 187.471L157.741 226.466L167.176 243.057L168.882 224.098L173.741 179.095L192.698 175.065L179.461 274.684ZM289.274 242.653L277.59 222.021L238.845 230.257L236.562 253.857L216.774 258.063L230.486 136.966L248.112 133.219L310.06 238.235L289.274 242.653ZM242.302 193.372L240.611 210.764L267.882 204.967L259.263 189.767L244.869 162.933L242.302 193.372ZM375.86 224.249L373.492 213.107C369.335 218.626 365.263 222.909 361.276 225.958C357.266 228.896 352.989 230.848 348.443 231.814C340.905 233.416 334.543 232.104 329.358 227.876C324.148 223.538 320.554 216.713 318.575 207.401L306.558 150.864L325.68 146.799L337.203 201.008C339.182 210.32 343.608 214.245 350.482 212.784C353.253 212.195 356.105 210.894 359.037 208.88C362.08 206.843 365.529 203.445 369.383 198.686L356.942 140.154L376.065 136.089L393.985 220.396L375.86 224.249ZM440.745 194.815C444.847 193.943 448.086 192.559 450.464 190.663C452.819 188.657 453.701 186.268 453.112 183.496C452.594 181.058 451.306 179.361 449.25 178.408C447.281 177.321 443.961 176.694 439.291 176.528L429.283 176.048C421.566 175.719 415.462 173.714 410.972 170.034C406.593 166.33 403.755 161.429 402.459 155.332C400.928 148.126 402.138 141.555 406.09 135.617C410.041 129.679 417.228 125.602 427.648 123.387C431.861 122.492 436.401 122.048 441.269 122.056C446.137 122.064 451.356 122.635 456.927 123.768L454.904 141.23C449.776 140.003 445.234 139.346 441.276 139.261C437.319 139.175 433.899 139.438 431.016 140.051C423.146 141.724 419.776 145.221 420.907 150.542C421.354 152.648 422.373 154.17 423.962 155.107C425.663 156.02 428.504 156.574 432.485 156.771L442.493 157.251C451.033 157.637 457.592 159.603 462.169 163.149C466.858 166.671 469.897 171.702 471.287 178.243C472.936 186.003 471.619 192.887 467.335 198.896C463.161 204.881 455.421 209.075 444.113 211.479C434.469 213.529 423.854 213.468 412.269 211.296L414.066 194.403C419.724 195.402 424.754 195.897 429.155 195.888C433.556 195.88 437.419 195.522 440.745 194.815Z" fill="#FFD343"/>
<path d="M17.7628 335.161C17.6359 335.158 17.5093 335.198 17.41 335.28C17.3106 335.362 17.2468 335.477 17.2323 335.603C17.2178 335.728 17.2537 335.855 17.3318 335.957C17.4099 336.059 17.524 336.127 17.648 336.154C25.952 337.908 33.759 339.436 41.7774 340.807C114.62 354.784 195.648 345.848 263.294 313.543C328.363 283.126 395.38 264.645 467.849 261.145C475.965 260.63 483.817 260.211 492.295 259.922C492.421 259.917 492.546 259.871 492.64 259.784C492.735 259.697 492.793 259.579 492.8 259.453C492.808 259.327 492.766 259.202 492.682 259.104C492.599 259.006 492.482 258.945 492.357 258.924C483.967 257.595 476.145 256.476 467.995 255.533C396.303 245.629 318.769 259.614 253.529 290.529C187.119 321.803 116.754 335.877 42.2251 335.317C34.1567 335.372 26.2373 335.343 17.7628 335.161Z" fill="#FFD343"/>
<path d="M370.722 441.195L199.531 385.577C199.531 385.577 151.977 370.128 117.989 474.745C84 579.362 131.553 594.812 131.553 594.812L179.107 610.261C179.107 610.261 182.196 600.751 194.556 562.708C206.915 524.665 244.717 505.403 282.76 517.762C320.802 530.122 368.356 545.571 396.888 554.841C425.42 564.111 450.621 551.269 459.89 522.737C469.16 494.205 496.969 408.609 496.969 408.609C496.969 408.609 512.418 361.056 407.801 327.067C303.184 293.078 287.734 340.632 287.734 340.632L272.285 388.185L376.902 422.174L370.722 441.195Z" fill="#FFD343"/>
<path d="M341.467 337.06C330.962 333.647 319.679 339.396 316.266 349.901C312.853 360.407 318.603 371.69 329.108 375.102C339.613 378.515 350.896 372.766 354.309 362.261C357.722 351.756 351.973 340.473 341.467 337.06Z" fill="white"/>
</g>
<defs>
<clipPath id="clip0_2_3">
<rect width="514" height="514" rx="257" fill="white"/>
</clipPath>
</defs>
</svg>
