<?xml version="1.0" encoding="utf-8"?>
<!-- Generator: Adobe Illustrator 16.0.4, SVG Export Plug-In . SVG Version: 6.00 Build 0)  -->
<!DOCTYPE svg PUBLIC "-//W3C//DTD SVG 1.1//EN" "http://www.w3.org/Graphics/SVG/1.1/DTD/svg11.dtd">
<svg version="1.1" id="Layer_1" xmlns="http://www.w3.org/2000/svg" xmlns:xlink="http://www.w3.org/1999/xlink" x="0px" y="0px"
	 width="545.28px" height="335.89px" viewBox="0 0 545.28 335.89" enable-background="new 0 0 545.28 335.89" xml:space="preserve">
<polyline fill="#009444" stroke="#231F20" stroke-linecap="round" stroke-miterlimit="10" points="240,184 200,176 200,192 160,184 
	160,216 "/>
<polyline fill="#009444" stroke="#231F20" stroke-linecap="round" stroke-miterlimit="10" points="304,184 344,176 344,192 384,184 
	384,216 "/>
<g>
	<path fill="none" stroke="#808285" stroke-width="4" stroke-linecap="square" stroke-miterlimit="10" d="M272,144V96V144z"/>
	<polyline fill="none" stroke="#808285" stroke-width="4" stroke-linecap="square" stroke-miterlimit="10" points="312,184 272,144 
		232,184 	"/>
</g>
<path fill="#009444" stroke="#231F20" stroke-miterlimit="10" d="M128,240c24-24,72-64,144-64s120,40,144,64"/>
<g>
	<path fill="#2B6098" stroke="#231F20" stroke-miterlimit="10" d="M272,256c-48,0-48,16-112,16c-53.02,0-96-42.98-96-96
		s42.98-96,96-96c8-8,16-16,32-16s32,8,32,16v8h-40l32,16c0,0-4,0-32-8h-24c-39.765,0-72,32.235-72,72s32.235,72,72,72
		c64,0,64-16,112-16"/>
	<circle fill="#FFFFFF" stroke="#231F20" stroke-miterlimit="10" cx="210" cy="78" r="6"/>
</g>
<g>
	<path fill="#FECE36" stroke="#231F20" stroke-miterlimit="10" d="M272,256c48,0,48,16,112,16c53.02,0,96-42.98,96-96
		s-42.98-96-96-96c-8-8-16-16-32-16s-32,8-32,16v8h40l-32,16c0,0,4,0,32-8h24c39.765,0,72,32.235,72,72s-32.235,72-72,72
		c-64,0-64-16-112-16"/>
	<circle fill="#FFFFFF" stroke="#231F20" stroke-miterlimit="10" cx="334" cy="78" r="6"/>
</g>
</svg>
