<svg width="112" height="113" viewBox="0 0 112 113" fill="none" xmlns="http://www.w3.org/2000/svg">
<g clip-path="url(#clip0_18_2)">
<path d="M54.9209 0.500977C59.4786 0.479799 64.2298 0.826174 68.8057 1.58789C75.9186 2.77353 81.7939 8.08179 81.7939 15.0322V40.5635C81.7939 47.7839 76.0567 53.6884 68.8877 53.6885H42.1064C32.7364 53.6885 24.8564 61.7198 24.8564 70.8447V82.5947H16.1377C12.3763 82.5947 9.41936 81.2348 7.16309 78.9248C5.03725 76.7483 3.51394 73.7067 2.55762 70.1104L2.37402 69.3838L2.1416 68.4014C1.02042 63.549 0.487365 59.5987 0.5 55.708C0.513518 51.558 1.14833 47.453 2.37402 42.3682V42.3672C4.45282 33.6891 11.0695 29.1572 18.6377 29.1572H56.0127V24.751H29.2002V15.0322C29.2002 11.1903 29.7165 8.3628 31.5283 6.23828C33.2328 4.23992 36.1588 2.77628 41.1641 1.78027L42.1934 1.58691C46.0145 0.910772 50.3632 0.522165 54.9209 0.500977ZM40.4189 7.71973C37.3544 7.71973 34.8877 10.2513 34.8877 13.3447C34.8877 16.4315 37.3577 18.9385 40.4189 18.9385C43.4696 18.9384 45.9502 16.4321 45.9502 13.3447C45.9502 10.2507 43.4729 7.71982 40.4189 7.71973Z" fill="url(#paint0_linear_18_2)" stroke="black"/>
<path d="M95.7001 29.1572C99.4564 29.1572 102.19 30.5535 104.231 32.8749C106.29 35.2167 107.666 38.5259 108.621 42.371V42.372C111.286 53.0846 111.392 61.0598 108.632 69.3427V69.3437C107.277 73.4205 105.899 76.7348 103.93 79.0322C101.989 81.2961 99.4553 82.5947 95.7001 82.5947H55.0126V87.0009H81.7938V96.7197C81.7938 100.423 80.2091 103.209 77.7928 105.324C75.3622 107.451 72.0885 108.897 68.7489 109.864H68.7479C58.6919 112.782 50.6503 112.336 42.2469 109.865C35.2007 107.793 29.2001 103.626 29.2001 96.7197V71.1884L29.204 70.8574C29.383 63.9204 35.1669 58.0634 42.1063 58.0634H68.8876C78.0915 58.0634 86.1376 50.0666 86.1376 40.5634V29.1572H95.7001ZM70.5751 92.8134C67.5244 92.8134 65.0438 95.3197 65.0438 98.4072C65.0438 101.501 67.521 104.032 70.5751 104.032C73.6397 104.032 76.1063 101.501 76.1063 98.4072C76.1063 95.3204 73.6363 92.8134 70.5751 92.8134Z" fill="url(#paint1_linear_18_2)" stroke="black"/>
</g>
<defs>
<linearGradient id="paint0_linear_18_2" x1="-3.34028e-07" y1="-2.90161e-07" x2="61.8267" y2="52.6849" gradientUnits="userSpaceOnUse">
<stop stop-color="#5A9FD4"/>
<stop offset="1" stop-color="#306998"/>
</linearGradient>
<linearGradient id="paint1_linear_18_2" x1="69.9307" y1="97.548" x2="47.7497" y2="66.4657" gradientUnits="userSpaceOnUse">
<stop stop-color="#FFD43B"/>
<stop offset="1" stop-color="#FFE873"/>
</linearGradient>
<clipPath id="clip0_18_2">
<rect width="112" height="113" fill="white"/>
</clipPath>
</defs>
</svg>
